<svg width="128" height="128" viewBox="0 0 128 128" fill="none" xmlns="http://www.w3.org/2000/svg">
<path d="M124.436 48.0538C125.163 46.8996 125.756 45.6588 126.128 44.3442C126.533 42.9154 126.739 41.3534 126.286 39.9105C125.966 38.8918 125.232 37.543 123.963 37.7118C122.683 37.8822 122.106 39.3868 121.567 40.3651C120.97 41.4488 120.308 42.4976 119.594 43.5085C118.174 45.5185 116.545 47.3743 114.796 49.103C110.805 53.0473 106.246 56.3835 101.655 59.5855C99.37 61.1789 97.0546 62.7267 94.7691 64.3184C92.8249 65.6725 90.1829 67.2592 89.2904 69.5722C88.3587 71.9863 89.7704 74.2318 89.835 76.6342C89.9079 79.3405 87.8083 80.8272 85.9129 82.3689C83.9366 80.6484 81.745 79.3168 79.275 78.4309C80.8804 75.9376 81.762 73.2805 81.9967 70.4464C86.8338 68.3076 87.6538 67.2726 88.2966 62.5402C92.7596 59.6302 94.0721 57.6173 94.8295 52.5385C97.0145 50.7109 98.3787 48.1797 97.7513 45.286C97.1925 42.7093 95.2201 40.9784 92.8555 40.0139C92.1155 32.3938 85.7593 27.0283 78.5451 25.5829C77.5488 25.3833 76.7826 25.3479 75.9672 24.7079C75.2292 24.1292 74.4834 23.5779 73.6672 23.1108C72.1238 22.2275 70.4335 21.6204 68.6856 21.2983C64.8314 20.5883 60.7093 21.0704 57.2018 22.8345C53.576 20.36 48.8239 18.892 44.6674 21.0383C43.0357 21.8808 41.692 23.2754 41.0224 24.9966C40.1837 27.1528 40.6166 29.1653 41.6657 31.1624C38.5558 29.8103 35.3783 31.5374 34.3307 34.6899C33.3149 37.7465 34.7282 40.8895 37.1919 42.7736C34.8861 43.1028 33.3832 44.4082 33.7202 46.8628C34.009 48.9636 35.8261 49.9979 37.7314 50.447C35.5306 50.9504 33.2781 50.0408 32.3826 47.8936C31.4506 45.6591 32.8276 43.4611 34.3081 41.8445C30.681 42.1978 28.9148 46.4145 29.1977 49.6036C29.5089 53.1136 31.9439 55.9899 35.314 56.9295C34.6223 59.5736 34.6406 62.3861 36.4998 64.5645C38.0869 66.4237 40.3997 66.8694 42.7218 66.3957C43.3264 68.4603 44.5564 69.8903 46.4998 70.7745C46.8664 74.9478 48.3747 78.6053 51.8847 81.4454C49.0823 81.69 46.6552 82.4967 44.4843 84.0404C42.2322 82.625 38.9989 81.0334 38.1393 78.2975C37.2985 75.6225 39.3426 72.9117 38.6106 70.1762C37.9539 67.7233 35.5064 66.2674 33.5714 64.8787C31.0973 63.1025 28.524 61.4608 26.0093 59.7421C21.3689 56.5709 16.7831 53.242 12.7922 49.2629C11.0047 47.4804 9.34392 45.5683 7.88686 43.5051C7.07061 42.3492 6.31939 41.1475 5.6427 39.9046C5.13103 38.9646 4.43352 37.6329 3.16483 37.725C0.530269 37.9167 0.863176 42.412 1.29187 44.095C1.98979 46.8367 3.76142 49.2763 5.5819 51.3875C4.89356 51.2167 3.92398 51.3108 4.08355 52.2729C4.19855 52.965 5.1123 53.6113 5.56355 54.0587C4.76064 54.0587 3.56184 53.8533 3.12398 54.7271C2.71314 55.5471 3.31606 56.658 3.72939 57.3592C5.03105 59.5675 7.20566 61.1054 9.12235 62.7408C7.46987 62.2562 6.27777 60.7987 4.43649 60.6991C3.77566 62.4112 6.14358 64.8037 7.16022 65.9599C8.47147 67.4515 9.98774 68.7566 11.6389 69.8587C13.494 71.0962 15.5085 72.0629 17.5926 72.8471C18.8027 73.3025 20.0331 73.7008 21.2676 74.0846C21.9897 74.3092 23.5951 74.4567 24.0597 75.123C21.9472 75.0155 19.8389 74.7371 17.7964 74.1763C16.8189 73.908 15.8606 73.5767 14.9293 73.1763C14.2968 72.9046 13.4264 72.2688 12.716 72.5717C10.6497 73.4538 13.8405 76.1367 14.6335 76.6592C16.2335 77.7142 18.049 78.3429 19.8585 78.9304C18.1726 79.3517 15.5289 77.8946 14.1468 79.5242C12.8213 81.087 15.8097 82.745 16.8639 83.2829C20.9356 85.3604 25.3727 85.0037 29.7684 84.5791C27.893 85.2779 25.7352 85.5787 24.103 86.8128C22.7409 87.8432 21.8618 89.784 23.0918 91.2607C24.388 92.8165 26.7681 92.8261 28.5735 92.469C29.5256 92.2807 30.4489 91.9669 31.3352 91.5749C32.1044 91.2344 33.0073 90.4573 33.8764 90.459C32.0102 92.229 28.6515 95.1082 29.6902 98.099C30.8657 101.482 35.0706 98.8786 37.0073 97.9011C36.7198 99.8565 35.401 100.437 34.3465 101.929C33.2549 103.472 32.609 105.512 32.9865 107.396C33.6065 105.724 34.3207 104.171 35.4324 102.769C36.4357 101.503 37.2374 100.184 37.7857 98.6582C38.8402 95.7262 39.0265 92.637 40.6619 89.9032C42.0598 87.5666 44.379 85.4141 47.1924 85.1212C50.3107 84.7962 52.2707 86.8766 54.4474 88.7212C56.5845 90.5324 59.1633 91.2045 61.9165 90.7199C63.4973 90.4415 65.0219 89.9028 66.4582 89.1911C67.7015 88.5749 68.8223 87.669 70.114 87.1616C71.5214 86.6087 72.9669 86.2191 74.3236 85.5286C75.5332 84.9128 76.6228 83.6786 78.0436 83.9898C80.7802 84.589 83.7373 85.1944 86.2102 86.5619C88.3698 87.756 90.1227 89.5402 91.3348 91.6852C92.0794 93.0028 92.6135 94.4348 93.2314 95.814C93.7164 96.8964 94.2322 98.9665 95.2493 99.6748C97.1698 99.8014 98.5993 98.4014 98.2485 96.4627C97.8085 94.031 95.7772 92.1652 94.1377 90.4806C96.0693 91.2323 97.7577 92.361 99.8701 92.5952C101.441 92.7693 103.624 92.5952 104.692 91.2373C105.826 89.796 105.232 88.0349 103.947 86.9556C102.294 85.5668 100.047 85.2594 98.0447 84.6702C99.0389 84.431 100.215 84.8043 101.216 84.8785C102.436 84.9685 103.663 84.9752 104.883 84.8639C106.884 84.6814 108.934 84.2164 110.745 83.3264C111.842 82.7868 114.738 81.3127 113.838 79.6885C112.941 78.0706 109.624 78.8661 108.185 79.0027C108.906 78.3665 110.143 78.1785 111.015 77.8077C111.923 77.4219 112.81 76.9765 113.617 76.4065C114.416 75.8423 116.986 73.5256 115.34 72.6135C114.631 72.221 113.586 72.8914 112.933 73.1652C111.992 73.5602 111.036 73.9043 110.05 74.1706C107.952 74.7381 105.775 74.9793 103.605 75.0156C107.71 73.2943 112.129 72.5406 115.878 69.9985C117.599 68.8322 119.204 67.3581 120.593 65.814C121.698 64.5849 123.711 62.4294 123.209 60.6136C121.382 60.7906 120.118 62.2306 118.505 62.7869C120.297 61.1073 122.49 59.6223 123.776 57.4831C124.206 56.7677 124.915 55.5098 124.448 54.6619C123.977 53.8077 122.809 53.9915 122.014 54.0265C122.519 53.5435 123.586 52.8402 123.561 52.0465C123.52 50.7624 122.473 51.6478 121.941 51.3665C122.007 50.9374 122.979 50.0852 123.257 49.7248C123.675 49.1869 124.072 48.631 124.436 48.054L124.436 48.0538ZM93.8955 42.8579C95.2843 43.8708 95.7151 45.4667 95.0059 47.2175C94.0959 43.9829 92.8675 42.9579 89.5525 42.6087C90.5109 41.7996 92.6087 41.9196 93.8955 42.8579ZM83.2863 43.3417C83.1105 44.9196 83.4809 46.4646 84.9488 47.2862C86.6179 48.2208 88.2854 47.602 89.5046 46.2633C89.6238 49.0016 86.8659 51.3457 84.2859 49.6608C82.1713 48.28 81.9609 45.3425 83.2863 43.3417ZM73.8251 29.1401C70.9654 26.8067 67.4767 25.7884 63.8668 26.8055C66.6471 24.8918 71.8976 26.1863 73.8251 29.1401ZM44.1088 25.343C46.6522 22.6538 53.3521 22.6929 54.6426 26.7538C52.8443 25.3438 50.0942 24.6275 47.9763 25.8147C47.2138 26.2417 46.3209 27.3038 46.7567 28.228C47.4063 29.6055 48.7779 28.3747 49.4571 27.7676C49.6271 28.6963 48.4904 29.6459 47.7783 30.0234C46.9033 30.4871 45.7733 30.6605 44.8201 30.34C42.6526 29.6117 42.7525 26.7772 44.1088 25.343ZM42.8983 36.8352C44.1267 34.3286 47.6313 32.906 50.2179 33.8739C50.695 34.0523 51.1929 34.2219 51.5392 34.7494C48.8725 34.5431 46.6546 35.2285 45.4892 37.7277C44.6008 39.6327 45.19 41.3594 46.753 42.866C46.1896 42.9927 45.7325 42.8865 45.2809 42.7219C42.8742 41.8456 41.775 39.1274 42.8983 36.8352ZM36.2601 35.1227C35.8538 32.4523 38.953 31.3118 40.7463 33.0235C39.1988 33.1197 38.721 33.4289 38.378 34.531C39.1551 35.2085 40.0347 36.761 38.3143 36.9826C37.2109 37.1255 36.4109 36.1151 36.2601 35.1226L36.2601 35.1227ZM36.9984 48.4176C36.015 48.0972 35.0934 47.3206 34.7879 46.3097C34.0108 43.7385 37.6784 42.4126 38.723 44.893C37.7726 45.0418 36.5033 45.7293 37.0792 46.9076C37.5201 47.8093 38.9905 47.6572 39.8051 47.6426C39.558 48.7222 37.7838 48.6739 36.9984 48.4176ZM37.3426 61.8342C36.2784 60.4691 36.2042 58.7242 36.4226 57.0729H37.6363C37.8805 59.4171 39.1384 62.0095 41.713 62.3808C40.3517 63.7342 38.4289 63.2275 37.3426 61.8342ZM71.0695 83.5568C68.8666 84.7697 66.3554 85.4556 63.8332 85.4034C61.0245 85.3455 58.6995 84.1746 56.3774 82.6992C54.1891 81.3088 51.9571 79.7596 50.4332 77.6242C49.0815 75.7305 48.3678 73.5126 48.1115 71.2146C47.9407 69.6792 47.8015 68.1484 47.4353 66.643C47.0448 65.0376 46.5565 63.4946 46.282 61.8588C45.8782 59.4551 45.6637 56.2872 43.7808 54.4905C43.7853 55.5809 43.7208 56.7784 42.7408 57.4575C41.597 58.2504 40.567 57.4617 39.8282 56.5233C41.2566 55.9933 42.2341 55.0108 42.7299 53.5476C44.3795 54.0013 45.7207 53.6121 46.887 52.1192C45.5074 52.3246 44.1512 52.0025 43.3287 50.8051C42.2466 49.2296 42.6791 47.5034 43.607 45.9817C44.7124 46.58 45.8404 46.9304 47.122 46.8909C47.6008 48.4896 48.6241 49.3925 50.4408 49.3313C49.9816 48.5079 49.2674 47.665 49.2753 46.6709C49.2832 45.6951 49.987 44.6768 51.0582 45.0167C51.8449 45.813 51.077 46.5084 50.8699 47.2272C53.2041 48.0405 55.447 46.208 55.5466 43.8309C55.5904 42.7913 55.242 41.6563 54.4428 40.953C53.3187 39.9635 52.4274 40.4176 51.5707 41.3785C50.8411 42.1968 49.5995 42.2755 49.3666 40.9547C49.1749 39.868 50.0091 38.8801 50.8782 38.3676C52.9528 37.1438 55.7453 37.9122 56.6499 40.1831C57.3332 39.666 58.0057 39.881 58.6794 40.0827C58.8052 39.6889 58.4907 39.3622 58.6586 39.0106C58.8977 39.0222 59.534 40.481 59.7882 40.7389C60.384 41.3439 61.164 41.6997 62.012 41.7351C63.7665 41.8089 65.6362 40.651 66.4524 39.1181C67.2545 37.6118 67.2845 35.5693 66.2403 34.1714C65.4407 33.101 61.9799 31.1552 61.3133 33.3581C61.6141 33.9706 62.9279 33.6997 63.4991 34.0231C63.9924 34.3022 64.217 34.7039 64.272 35.2585C64.452 37.0648 62.642 38.2864 60.9878 38.0327C59.4261 37.7931 58.3686 36.3673 58.4124 34.8218C58.4586 33.1947 59.5365 31.7617 60.8782 30.9318C66.907 27.2026 77.2526 34.6163 72.651 41.368C73.4139 37.2996 70.9739 33.2897 67.1272 31.8618C69.5443 34.3847 70.2785 38.138 68.031 41.041C66.2026 43.4027 63.6419 43.2597 60.9818 42.5197C60.3239 43.8863 61.5564 45.0709 62.7648 45.476C64.3648 46.0122 66.0723 45.4676 67.6122 44.9997C66.506 46.1918 63.4977 46.6814 61.2101 46.0268C61.3747 47.7643 63.4847 48.8697 65.0193 49.1193C66.7484 49.4005 68.6431 48.983 70.2476 48.331C71.7727 47.711 73.1381 46.7568 74.268 45.5613C74.8093 44.9884 75.2959 44.3647 75.7322 43.7084C76.2026 43.0009 76.5351 41.856 77.2052 41.3305C78.2189 40.9984 78.6764 41.6789 79.0839 42.4739C79.5368 43.3568 80.0618 44.1576 81.104 44.3788C79.5293 47.296 79.9302 50.9806 83.0073 52.7205C85.6965 54.2409 88.6657 53.0976 90.5302 50.8567C90.3064 54.0842 86.7215 55.0742 84.029 54.3809C82.7636 54.055 81.6231 53.3363 80.7877 52.3308C80.3198 51.7675 79.9523 51.1238 79.6877 50.4421C79.5094 49.9833 79.4748 48.7684 79.0827 48.5242C78.099 50.6617 78.4315 54.2059 81.7719 56.8296C81.5473 58.1934 81.7969 59.5671 81.8736 60.9317C81.9586 62.4421 81.4594 63.4655 80.9678 64.8546C80.0723 67.3846 80.1632 69.9625 79.689 72.5575C78.8224 77.3042 75.209 81.2779 71.0694 83.557L71.0695 83.5568Z" fill="#7A7A7A"/>
</svg>
