<?xml version="1.0" encoding="UTF-8"?>
<svg width="1200pt" height="1200pt" version="1.1" viewBox="0 0 1200 1200" xmlns="http://www.w3.org/2000/svg">
 <path d="m1168.7 430.61c6.8086-10.82 12.371-22.453 15.863-34.777 3.793-13.395 5.7266-28.039 1.4766-41.566-3-9.5508-9.8789-22.195-21.773-20.613-12.004 1.5977-17.41 15.703-22.465 24.875-5.6016 10.16-11.801 19.992-18.496 29.469-13.312 18.844-28.582 36.242-44.984 52.449-37.418 36.977-80.152 68.254-123.2 98.273-21.418 14.938-43.125 29.449-64.551 44.371-18.227 12.695-42.996 27.57-51.363 49.254-8.7344 22.633 4.5 43.684 5.1055 66.207 0.68359 25.371-19 39.309-36.77 53.762-18.527-16.129-39.074-28.613-62.23-36.918 15.051-23.375 23.316-48.285 25.516-74.855 45.348-20.051 53.035-29.754 59.062-74.121 41.84-27.281 54.145-46.152 61.246-93.766 20.484-17.133 33.273-40.863 27.391-67.992-5.2383-24.156-23.73-40.383-45.898-49.426-6.9375-71.438-66.527-121.74-134.16-135.29-9.3398-1.8711-16.523-2.2031-24.168-8.2031-6.918-5.4258-13.91-10.594-21.562-14.973-14.469-8.2812-30.316-13.973-46.703-16.992-36.133-6.6562-74.777-2.1367-107.66 14.402-33.992-23.199-78.543-36.961-117.51-16.84-15.297 7.8984-27.895 20.973-34.172 37.109-7.8633 20.215-3.8047 39.082 6.0312 57.805-29.156-12.676-58.945 3.5156-68.766 33.07-9.5234 28.656 3.7266 58.121 26.824 75.785-21.617 3.0859-35.707 15.324-32.547 38.336 2.707 19.695 19.742 29.391 37.605 33.602-20.633 4.7188-41.75-3.8086-50.145-23.938-8.7383-20.949 4.1719-41.555 18.051-56.711-34.004 3.3125-50.562 42.844-47.91 72.742 2.918 32.906 25.746 59.871 57.34 68.68-6.4844 24.789-6.3125 51.156 11.117 71.578 14.879 17.43 36.562 21.609 58.332 17.168 5.668 19.355 17.199 32.762 35.418 41.051 3.4375 39.125 17.578 73.414 50.484 100.04-26.273 2.293-49.027 9.8555-69.379 24.328-21.113-13.27-51.426-28.191-59.484-53.84-7.8828-25.078 11.281-50.492 4.418-76.137-6.1562-22.996-29.102-36.645-47.242-49.664-23.195-16.652-47.32-32.043-70.895-48.156-43.504-29.73-86.496-60.938-123.91-98.242-16.758-16.711-32.328-34.637-45.988-53.98-7.6523-10.836-14.695-22.102-21.039-33.754-4.7969-8.8125-11.336-21.297-23.23-20.434-24.699 1.7969-21.578 43.941-17.559 59.719 6.543 25.703 23.152 48.574 40.219 68.367-6.4531-1.6016-15.543-0.71875-14.047 8.3008 1.0781 6.4883 9.6445 12.547 13.875 16.742-7.5273 0-18.766-1.9258-22.871 6.2656-3.8516 7.6875 1.8008 18.102 5.6758 24.676 12.203 20.703 32.59 35.121 50.559 50.453-15.492-4.543-26.668-18.207-43.93-19.141-6.1953 16.051 16.004 38.48 25.535 49.32 12.293 13.984 26.508 26.219 41.988 36.551 17.391 11.602 36.277 20.664 55.816 28.016 11.344 4.2695 22.879 8.0039 34.453 11.602 6.7695 2.1055 21.82 3.4883 26.176 9.7344-19.805-1.0078-39.57-3.6172-58.719-8.875-9.1641-2.5156-18.148-5.6211-26.879-9.375-5.9297-2.5469-14.09-8.5078-20.75-5.668-19.371 8.2695 10.543 33.422 17.977 38.32 15 9.8906 32.02 15.785 48.984 21.293-15.805 3.9492-40.59-9.7109-53.547 5.5664-12.426 14.652 15.59 30.195 25.473 35.238 38.172 19.477 79.77 16.133 120.98 12.152-17.582 6.5508-37.812 9.3711-53.113 20.941-12.77 9.6602-21.012 27.855-9.4805 41.699 12.152 14.586 34.465 14.676 51.391 11.328 8.9258-1.7656 17.582-4.707 25.891-8.3828 7.2109-3.1914 15.676-10.477 23.824-10.461-17.496 16.594-48.984 43.586-39.246 71.625 11.02 31.719 50.441 7.3086 68.598-1.8555-2.6953 18.332-15.059 23.777-24.945 37.758-10.234 14.473-16.289 33.59-12.75 51.254 5.8125-15.672 12.508-30.23 22.93-43.379 9.4062-11.867 16.922-24.234 22.062-38.535 9.8867-27.488 11.633-56.449 26.965-82.078 13.105-21.906 34.848-42.086 61.223-44.832 29.234-3.0469 47.609 16.457 68.016 33.75 20.035 16.98 44.211 23.281 70.023 18.738 14.82-2.6094 29.113-7.6602 42.578-14.332 11.656-5.7773 22.164-14.27 34.273-19.027 13.195-5.1836 26.746-8.8359 39.465-15.309 11.34-5.7734 21.555-17.344 34.875-14.426 25.656 5.6172 53.379 11.293 76.562 24.113 20.246 11.195 36.68 27.922 48.043 48.031 6.9805 12.352 11.988 25.777 17.781 38.707 4.5469 10.148 9.3828 29.555 18.918 36.195 18.004 1.1875 31.406-11.938 28.117-30.113-4.125-22.797-23.168-40.289-38.539-56.082 18.109 7.0469 33.938 17.629 53.742 19.824 14.727 1.6328 35.191 0 45.203-12.73 10.629-13.512 5.0625-30.023-6.9805-40.141-15.5-13.02-36.562-15.902-55.336-21.426 9.3203-2.2422 20.344 1.2578 29.73 1.9531 11.438 0.84375 22.945 0.90625 34.375-0.13672 18.762-1.7109 37.984-6.0703 54.957-14.414 10.289-5.0586 37.441-18.879 29-34.105-8.4102-15.168-39.508-7.7109-52.996-6.4297 6.7617-5.9648 18.352-7.7266 26.531-11.203 8.5078-3.6172 16.828-7.793 24.395-13.137 7.4844-5.2891 31.586-27.008 16.148-35.559-6.6445-3.6797-16.441 2.6055-22.559 5.1719-8.8242 3.7031-17.785 6.9297-27.027 9.4258-19.672 5.3203-40.082 7.582-60.426 7.9219 38.488-16.137 79.91-23.203 115.06-47.035 16.129-10.934 31.184-24.754 44.203-39.23 10.363-11.523 29.234-31.73 24.52-48.754-17.125 1.6602-28.973 15.16-44.098 20.375 16.805-15.746 37.359-29.668 49.414-49.723 4.0312-6.707 10.68-18.5 6.3008-26.449-4.4141-8.0078-15.359-6.2852-22.82-5.957 4.7344-4.5273 14.738-11.121 14.504-18.562-0.37891-12.039-10.199-3.7383-15.18-6.375 0.61719-4.0234 9.7266-12.012 12.336-15.391 3.918-5.043 7.6406-10.254 11.047-15.664zm-286.32-48.711c13.02 9.4961 17.059 24.457 10.41 40.871-8.5312-30.324-20.047-39.934-51.125-43.207 8.9844-7.5859 28.652-6.4609 40.715 2.3359zm-99.461 4.5352c-1.6484 14.793 1.8242 29.277 15.586 36.98 15.648 8.7617 31.281 2.9609 42.711-9.5898 1.1172 25.672-24.738 47.648-48.926 31.852-19.824-12.945-21.797-40.484-9.3711-59.242zm-88.699-133.14c-26.809-21.875-59.516-31.422-93.359-21.887 26.066-17.941 75.289-5.8047 93.359 21.887zm-278.59-35.598c23.844-25.211 86.656-24.844 98.754 13.227-16.859-13.219-42.641-19.934-62.496-8.8047-7.1484 4.0039-15.52 13.961-11.434 22.625 6.0898 12.914 18.949 1.375 25.316-4.3164 1.5938 8.707-9.0625 17.609-15.738 21.148-8.2031 4.3477-18.797 5.9727-27.734 2.9688-20.32-6.8281-19.383-33.402-6.668-46.848zm-11.348 107.74c11.516-23.5 44.371-36.836 68.621-27.762 4.4727 1.6719 9.1406 3.2617 12.387 8.207-25-1.9336-45.793 4.4922-56.719 27.922-8.3281 17.859-2.8047 34.047 11.848 48.172-5.2812 1.1875-9.5664 0.19141-13.801-1.3516-22.562-8.2148-32.867-33.699-22.336-55.188zm-62.234-16.055c-3.8086-25.035 25.246-35.727 42.059-19.68-14.508 0.90234-18.988 3.8008-22.203 14.133 7.2852 6.3516 15.531 20.906-0.59766 22.984-10.344 1.3398-17.844-8.1328-19.258-17.438zm6.9219 124.64c-9.2188-3.0039-17.859-10.285-20.723-19.762-7.2852-24.105 27.098-36.535 36.891-13.281-8.9102 1.3945-20.809 7.8398-15.41 18.887 4.1328 8.4531 17.918 7.0273 25.555 6.8906-2.3164 10.121-18.949 9.668-26.312 7.2656zm3.2266 125.78c-9.9766-12.797-10.672-29.156-8.625-44.637h11.379c2.2891 21.977 14.082 46.281 38.219 49.762-12.762 12.688-30.789 7.9375-40.973-5.125zm316.19 203.65c-20.652 11.371-44.195 17.801-67.84 17.312-26.332-0.54297-48.129-11.52-69.898-25.352-20.516-13.035-41.441-27.559-55.727-47.578-12.672-17.754-19.363-38.547-21.766-60.09-1.6016-14.395-2.9062-28.746-6.3398-42.859-3.6602-15.051-8.2383-29.516-10.812-44.852-3.7852-22.535-5.7969-52.234-23.449-69.078 0.042969 10.223-0.5625 21.449-9.75 27.816-10.723 7.4336-20.379 0.039063-27.305-8.7578 13.391-4.9688 22.555-14.18 27.203-27.898 15.465 4.2539 28.039 0.60547 38.973-13.391-12.934 1.9258-25.648-1.0938-33.359-12.32-10.145-14.77-6.0898-30.953 2.6094-45.219 10.363 5.6094 20.938 8.8945 32.953 8.5234 4.4883 14.988 14.082 23.453 31.113 22.879-4.3047-7.7188-11-15.621-10.926-24.941 0.074218-9.1484 6.6719-18.695 16.715-15.508 7.375 7.4648 0.17578 13.984-1.7656 20.723 21.883 7.625 42.91-9.5547 43.844-31.84 0.41016-9.7461-2.8555-20.387-10.348-26.98-10.539-9.2773-18.895-5.0195-26.926 3.9883-6.8398 7.6719-18.48 8.4102-20.664-3.9727-1.7969-10.188 6.0234-19.449 14.172-24.254 19.449-11.473 45.629-4.2695 54.109 17.02 6.4062-4.8477 12.711-2.832 19.027-0.94141 1.1797-3.6914-1.7695-6.7539-0.19531-10.051 2.2422 0.10938 8.207 13.785 10.59 16.203 5.5859 5.6719 12.898 9.0078 20.848 9.3398 16.449 0.69141 33.977-10.164 41.629-24.535 7.5195-14.121 7.8008-33.27-1.9883-46.375-7.4961-10.035-39.941-28.277-46.191-7.625 2.8203 5.7422 15.137 3.2031 20.492 6.2344 4.625 2.6172 6.7305 6.3828 7.2461 11.582 1.6875 16.934-15.281 28.387-30.789 26.008-14.641-2.2461-24.555-15.613-24.145-30.102 0.43359-15.254 10.539-28.688 23.117-36.469 56.52-34.961 153.51 34.543 110.37 97.84 7.1523-38.141-15.723-75.734-51.785-89.121 22.66 23.652 29.543 58.84 8.4727 86.055-17.141 22.141-41.148 20.801-66.086 13.863-6.168 12.812 5.3867 23.918 16.715 27.715 15 5.0273 31.008-0.078125 45.445-4.4648-10.371 11.176-38.574 15.766-60.02 9.6289 1.543 16.289 21.324 26.652 35.711 28.992 16.211 2.6367 33.973-1.2773 49.016-7.3906 14.297-5.8125 27.098-14.758 37.691-25.965 5.0742-5.3711 9.6367-11.219 13.727-17.371 4.4102-6.6328 7.5273-17.367 13.809-22.293 9.5039-3.1133 13.793 3.2656 17.613 10.719 4.2461 8.2773 9.168 15.785 18.938 17.859-14.762 27.348-11.004 61.891 17.844 78.203 25.211 14.254 53.047 3.5352 70.527-17.473-2.0977 30.258-35.707 39.539-60.949 33.039-11.863-3.0547-22.555-9.793-30.387-19.219-4.3867-5.2812-7.832-11.316-10.312-17.707-1.6719-4.3008-1.9961-15.691-5.6719-17.98-9.2227 20.039-6.1055 53.266 25.211 77.863-2.1055 12.785 0.23438 25.664 0.95312 38.457 0.79688 14.16-3.8828 23.754-8.4922 36.777-8.3945 23.719-7.543 47.887-11.988 72.215-8.125 44.5-42 81.754-80.809 103.12z"/>
 <path d="m810.55 979.84c-17.766-20.965-27.418-46.312-37.234-71.605-4.0234 23.285-7.1719 47.434-27.715 62.375-20.988 15.27-47.32 13.332-70.703 5.6523 21.488 38.352 81.18 35.891 108.07 9.9609 12.055 20.773 27.723 37.465 50.742 46.172 4.7852-9.2734 7.5625-18.98 1.2539-28.164-6.375-9.2734-17.078-15.73-24.414-24.391z"/>
 <path d="m450.75 945.76c-6.0156-14.078 1.4922-24.535 3.6211-38.273 2.375-15.32-4.5703-29.715-8.8164-44.078-10.148 4.2344-13.086 24.188-14.727 33.441-2.4766 13.977-3.0352 28.266-6.1875 42.125-2.4688 10.859-6.4609 22.617-14.973 30.309-9.9375 8.9805-21.891 8.3672-34.406 7.5508 10.008 6.207 22.055 8.5742 30.758 16.891 7.8164 7.4727 11.676 17.766 14.656 27.926 11.641-10.918 20.539-22.953 28.344-35.605 29.609 4.6602 62.188-4.0078 73.48-20.766-23.121 8.4844-60.562 6.6641-71.75-19.52z"/>
 <path d="m554.12 591.07c11.164-37.926-0.09375-62.984-34.82-78.941-24.211-11.125-54.227-5.5156-65.73 12.285 31.992-10.781 39.352-11.27 51.09-3.3867-17.609 3.8242-17.68 3.7578-32.035 18.41-6.1016 6.2266-12.996 9.75-21.949 8.8047-2.2461-0.23828-4.8086-1.4727-7.1797 0.68359 0.44531 9.832 2.1836 18.832 12.297 24.016 7.0312 3.6016 12.816 2.4297 18.07-3.7656 5.875 14.695 14.004 24.898 31.207 23.461 16.992-1.418 21.824-14.762 27.016-27.645 6.418 2.8984 4.0664 9.6914 8.7266 13.215 7.3906-0.066407 10.941 5.4297 13.309 12.863zm-71.227-26.086c3.8945 12.211 12.73 14.539 23.91 12.719-10.402 7.9844-26.414 1.2383-23.91-12.719zm-6.7031-10.879c-6.082 3.8242-13.016 3.1523-21.152-0.98438 15.91-4.9336 26.473-18.918 44.098-16.984 9.8672 1.082 18.324 4.3125 25.496 11.703-17.48-6.75-33.211-3.3125-48.441 6.2656z"/>
 <path d="m639.15 540.09c11.336-15.719 29.543-12.41 45.762-9.9375-6.6758-8.9688-15.949-11.543-24.426-16.852 12.402-8.3867 15.086-8.4766 48.094-2.0625-6.7461-11.414-26.691-15.656-38.844-15.844-13.582-0.21094-27.359 3.8281-38.352 11.887-11.824 8.668-22.18 23.418-18.832 38.742 1.5508 7.0938 6.2539 13.176 13.34 15.449 9.9531 3.1914 10.23-3.832 17.172-8.1445 4.1758 16.477 12.367 29.914 30.492 31.727 19.703 1.9688 31.055-12.461 38.289-29.035-22.133-14.367-43.883-29.988-72.695-15.93zm39.641 28.281c-14.578 11.727-29.727-4.4961-24.945-19.641 2.5781 16.434 11.59 21.016 24.945 19.641z"/>
 <path d="m570.79 657.41c10.043 3.3633 15.863-6.4961 20.77-13.555 7.082-2.3945 16.508 5.832 20.848-4.4023 4.4492-10.492-7.5234-14.078-15.312-12.152-10.91 2.6953-19.777 10.609-31.574 5.7461-8.1211-3.3477-11.867-10.891-12.785-19.305-6.3047 10.332-14.141 18.461-8.375 29.617 4.4688 2.8906 10.113 2.5156 14.656 5.1719 4.3164 2.5234 6.8203 7.2188 11.773 8.8789z"/>
 <path d="m569.81 693.92c4.0586-1.0938 8.3477-2.3906 12.055-1.0234 12.035 4.4414 23.547-3.3711 35.496-0.90625 2.7617 0.57031 6.4375-1.1133 7.8555-6.1445-8.2617-0.070312-14.98-2.9961-21.289-6.8164-11.945-7.2344-24.719 1.4727-36.84-2.0742-0.52734-0.15625-1.4531 0.6875-2.0625 1.2188-5.0273 4.375-10.66 7.6367-17.777 8.7617 6.3242 8.5781 14.188 9.2422 22.562 6.9844z"/>
 <path d="m557.36 742.98c3.6992 19.758 17.883 30.336 39.609 31.18 16.328 0.63281 34.902-7.0859 36.723-20.953-27.578 13.266-52.957 13.328-76.332-10.227z"/>
 <path d="m606.79 709.05c-13.156 2.8242-26.012 3.8008-38.371-4.6484-6.3398 24.805 32.609 26.52 38.371 4.6484z"/>
</svg>
